<svg width="853" height="669" viewBox="0 0 853 669" fill="none" xmlns="http://www.w3.org/2000/svg">
<path opacity="0.010101" d="M272.067 317.069L409.643 58.3264C413.405 51.2499 421.297 47.4009 429.19 48.7927L717.782 99.6793C725.675 101.071 731.774 107.387 732.89 115.324L773.674 405.516C774.789 413.453 770.667 421.205 763.464 424.719L500.077 553.181C492.873 556.694 484.227 555.17 478.659 549.405L275.093 338.606C269.526 332.841 268.304 324.146 272.067 317.069Z" stroke="#6FD791" stroke-opacity="0.09" stroke-width="3"/>
<path opacity="0.020202" d="M269.149 313.411L410.935 57.6223C414.82 50.6125 422.778 46.9019 430.645 48.4311L717.729 104.235C725.596 105.764 731.584 112.185 732.561 120.14L768.202 410.417C769.179 418.372 764.923 426.051 757.659 429.438L492.603 553.036C485.339 556.423 476.72 554.748 471.254 548.886L271.799 334.997C266.333 329.135 265.263 320.421 269.149 313.411Z" stroke="#6FD791" stroke-opacity="0.09" stroke-width="3"/>
<path opacity="0.030303" d="M266.314 309.763L412.248 56.9974C416.256 50.0564 424.277 46.4853 432.116 48.1516L717.607 108.835C725.447 110.501 731.322 117.026 732.159 124.997L762.668 415.267C763.506 423.237 759.116 430.841 751.794 434.101L485.158 552.815C477.837 556.075 469.249 554.249 463.886 548.293L268.587 331.392C263.224 325.436 262.306 316.704 266.314 309.763Z" stroke="#6FD791" stroke-opacity="0.09" stroke-width="3"/>
<path opacity="0.040404" d="M263.56 306.129L413.581 56.4521C417.709 49.5822 425.791 46.1516 433.6 47.9545L717.416 113.479C725.225 115.281 730.986 121.908 731.684 129.892L757.071 420.065C757.77 428.049 753.248 435.575 745.87 438.707L477.744 552.519C470.367 555.651 461.812 553.676 456.553 547.627L265.456 327.794C260.198 321.745 259.432 312.999 263.56 306.129Z" stroke="#6FD791" stroke-opacity="0.09" stroke-width="3"/>
<path opacity="0.050505" d="M260.889 302.508L414.933 55.9859C419.18 49.1891 427.321 45.9 435.097 47.839L717.156 118.164C724.932 120.103 730.576 126.829 731.135 134.824L751.413 424.809C751.972 432.805 747.319 440.25 739.888 443.253L470.362 552.149C462.931 555.151 454.412 553.027 449.26 546.887L262.406 324.203C257.254 318.063 256.641 309.305 260.889 302.508Z" stroke="#6FD791" stroke-opacity="0.09" stroke-width="3"/>
<path opacity="0.0606061" d="M258.298 298.901L416.301 55.5982C420.666 48.8765 428.863 45.73 436.604 47.8043L716.825 122.889C724.566 124.964 730.092 131.787 730.511 139.791L745.694 429.499C746.114 437.502 741.332 444.866 733.849 447.738L463.012 551.703C455.53 554.575 447.049 552.303 442.005 546.074L259.436 320.62C254.392 314.391 253.933 305.623 258.298 298.901Z" stroke="#6FD791" stroke-opacity="0.09" stroke-width="3"/>
<path opacity="0.0707071" d="M255.788 295.311L417.684 55.2899C422.166 48.6454 430.417 45.6425 438.121 47.8516L716.423 127.654C724.128 129.863 729.533 136.782 729.813 144.791L739.917 434.133C740.197 442.143 735.287 449.422 727.755 452.163L455.698 551.184C448.166 553.925 439.726 551.505 434.792 545.189L256.547 317.046C251.613 310.73 251.306 301.956 255.788 295.311Z" stroke="#6FD791" stroke-opacity="0.09" stroke-width="3"/>
<path opacity="0.0808081" d="M253.358 291.74L419.082 55.0625C423.679 48.4972 431.98 45.6388 439.645 47.982L715.95 132.457C723.615 134.8 728.899 141.812 729.039 149.826L734.081 438.712C734.221 446.725 729.185 453.918 721.607 456.527L448.418 550.593C440.84 553.203 432.444 550.636 427.62 544.235L253.738 313.485C248.914 307.084 248.761 298.305 253.358 291.74Z" stroke="#6FD791" stroke-opacity="0.09" stroke-width="3"/>
<path opacity="0.0909091" d="M251.008 288.188L420.492 54.914C425.203 48.43 433.553 45.7168 441.175 48.1935L715.405 137.296C723.028 139.773 728.188 146.876 728.188 154.891V443.233C728.188 451.248 723.028 458.351 715.405 460.828L441.175 549.93C433.553 552.407 425.203 549.694 420.492 543.21L251.008 309.936C246.298 303.452 246.298 294.672 251.008 288.188Z" stroke="#6FD791" stroke-opacity="0.09" stroke-width="3"/>
<path opacity="0.10101" d="M248.738 284.656L421.913 54.8447C426.736 48.4439 435.132 45.8769 442.71 48.4862L714.788 142.17C722.366 144.779 727.402 151.971 727.262 159.985L722.24 447.696C722.1 455.709 716.816 462.721 709.152 465.064L433.97 549.196C426.306 551.539 418.004 548.68 413.407 542.115L248.358 306.4C243.761 299.835 243.914 291.056 248.738 284.656Z" stroke="#6FD791" stroke-opacity="0.09" stroke-width="3"/>
<path opacity="0.111111" d="M246.546 281.147L423.343 54.8565C428.278 48.5409 436.718 46.1207 444.249 48.8619L714.097 147.079C721.629 149.82 726.538 157.099 726.259 165.109L716.237 452.101C715.957 460.11 710.552 467.029 702.847 469.238L426.805 548.392C419.101 550.601 410.85 547.598 406.368 540.954L245.787 302.882C241.305 296.237 241.612 287.463 246.546 281.147Z" stroke="#6FD791" stroke-opacity="0.09" stroke-width="3"/>
<path opacity="0.121212" d="M244.432 277.66L424.782 54.9467C429.826 48.7181 438.307 46.4457 445.789 49.3179L713.334 152.019C720.816 154.891 725.598 162.254 725.178 170.258L710.18 456.444C709.761 464.448 704.235 471.271 696.494 473.346L419.68 547.518C411.938 549.592 403.741 546.446 399.376 539.724L243.294 299.379C238.929 292.657 239.388 283.889 244.432 277.66Z" stroke="#6FD791" stroke-opacity="0.09" stroke-width="3"/>
<path opacity="0.131313" d="M242.396 274.2L426.228 55.118C431.379 48.9784 439.899 46.8543 447.33 49.8566L712.496 156.991C719.927 159.993 724.58 167.439 724.021 175.434L704.071 460.729C703.512 468.724 697.868 475.45 690.092 477.389L412.596 546.576C404.819 548.515 396.678 545.226 392.431 538.429L240.879 295.895C236.632 289.098 237.244 280.34 242.396 274.2Z" stroke="#6FD791" stroke-opacity="0.09" stroke-width="3"/>
<path opacity="0.141414" d="M240.437 270.765L427.678 55.3686C432.936 49.3199 441.491 47.3448 448.869 50.4764L711.584 161.992C718.962 165.124 723.484 172.65 722.785 180.634L697.911 464.951C697.212 472.936 691.452 479.562 683.643 481.365L405.554 545.567C397.745 547.37 389.663 543.939 385.535 537.069L238.541 292.431C234.414 285.561 235.179 276.814 240.437 270.765Z" stroke="#6FD791" stroke-opacity="0.09" stroke-width="3"/>
<path opacity="0.151515" d="M238.554 267.358L429.133 55.6984C434.496 49.7423 443.084 47.9169 450.406 51.1767L710.598 167.022C717.92 170.282 722.31 177.885 721.472 185.856L691.701 469.111C690.863 477.082 684.988 483.607 677.148 485.273L398.557 544.49C390.717 546.156 382.696 542.585 378.689 535.644L236.281 288.987C232.274 282.046 233.191 273.314 238.554 267.358Z" stroke="#6FD791" stroke-opacity="0.09" stroke-width="3"/>
<path opacity="0.161616" d="M236.747 263.979L430.59 56.1083C436.056 50.2467 444.675 48.5714 451.939 51.9585L709.537 172.078C716.801 175.466 721.057 183.145 720.08 191.1L685.442 473.209C684.465 481.164 678.477 487.585 670.61 489.114L391.604 543.348C383.736 544.877 375.779 541.166 371.893 534.157L234.097 285.565C230.211 278.555 231.281 269.841 236.747 263.979Z" stroke="#6FD791" stroke-opacity="0.09" stroke-width="3"/>
<path opacity="0.171717" d="M235.015 260.632L432.048 56.598C437.616 50.8327 446.262 49.3081 453.466 52.8215L708.4 177.161C715.603 180.674 719.725 188.427 718.61 196.363L679.135 477.243C678.019 485.18 671.92 491.496 664.027 492.887L384.697 542.141C376.804 543.533 368.912 539.684 365.149 532.607L231.989 282.168C228.226 275.091 229.448 266.397 235.015 260.632Z" stroke="#6FD791" stroke-opacity="0.09" stroke-width="3"/>
<path opacity="0.181818" d="M233.358 257.315L433.506 57.1665C439.174 51.4992 447.845 50.1258 454.987 53.7644L707.188 182.267C714.329 185.906 718.315 193.729 717.061 201.645L672.782 481.212C671.529 489.129 665.32 495.337 657.404 496.591L377.837 540.87C369.921 542.124 362.098 538.138 358.459 530.996L229.956 278.795C226.317 271.654 227.691 262.982 233.358 257.315Z" stroke="#6FD791" stroke-opacity="0.09" stroke-width="3"/>
<path opacity="0.191919" d="M231.774 254.031L434.962 57.8145C440.728 52.2471 449.422 51.0251 456.499 54.7878L705.9 187.397C712.977 191.16 716.825 199.051 715.434 206.944L666.384 485.117C664.993 493.01 658.677 499.109 650.74 500.225L371.024 539.536C363.088 540.651 355.336 536.529 351.822 529.326L227.998 275.449C224.484 268.245 226.009 259.598 231.774 254.031Z" stroke="#6FD791" stroke-opacity="0.09" stroke-width="3"/>
<path opacity="0.20202" d="M230.264 250.779L436.415 58.54C442.277 53.0739 450.991 52.0039 458.001 55.8895L704.536 192.546C711.546 196.432 715.257 204.389 713.727 212.257L659.943 488.954C658.413 496.822 651.992 502.81 644.037 503.786L364.262 538.139C356.307 539.115 348.627 534.859 345.24 527.595L226.114 272.128C222.727 264.864 224.402 256.245 230.264 250.779Z" stroke="#6FD791" stroke-opacity="0.09" stroke-width="3"/>
<path opacity="0.212121" d="M228.825 247.565L437.864 59.3463C443.82 53.9835 452.552 53.0657 459.493 57.0731L703.096 197.718C710.037 201.725 713.608 209.746 711.942 217.585L653.458 492.727C651.792 500.567 645.267 506.442 637.296 507.28L357.548 536.682C349.578 537.52 341.974 533.13 338.714 525.808L224.304 268.838C221.044 261.516 222.869 252.928 228.825 247.565Z" stroke="#6FD791" stroke-opacity="0.09" stroke-width="3"/>
<path opacity="0.222222" d="M227.458 244.386L439.306 60.2295C445.355 54.9714 454.101 54.2062 460.971 58.3341L701.579 202.906C708.449 207.034 711.879 215.116 710.077 222.925L646.932 496.432C645.13 504.241 638.503 510.001 630.519 510.7L350.886 535.165C342.902 535.863 335.376 531.341 332.244 523.963L222.566 265.577C219.434 258.199 221.409 249.644 227.458 244.386Z" stroke="#6FD791" stroke-opacity="0.09" stroke-width="3"/>
<path opacity="0.232323" d="M226.161 241.245L440.741 61.192C446.88 56.0403 455.639 55.4278 462.436 59.675L699.985 208.112C706.782 212.36 710.071 220.5 708.132 228.277L640.367 500.07C638.428 507.846 631.702 513.49 623.707 514.049L344.276 533.589C336.281 534.148 328.835 529.495 325.832 522.064L220.9 262.347C217.898 254.916 220.022 246.397 226.161 241.245Z" stroke="#6FD791" stroke-opacity="0.09" stroke-width="3"/>
<path opacity="0.242424" d="M224.935 238.144L442.167 62.2326C448.396 57.1888 457.164 56.7293 463.885 61.0944L698.315 213.335C705.037 217.7 708.183 225.897 706.109 233.638L633.762 503.639C631.688 511.381 624.865 516.906 616.861 517.326L337.719 531.955C329.715 532.375 322.351 527.593 319.479 520.11L219.306 259.151C216.434 251.668 218.706 243.188 224.935 238.144Z" stroke="#6FD791" stroke-opacity="0.09" stroke-width="3"/>
<path opacity="0.252525" d="M223.777 235.081L443.583 63.3498C449.899 58.4155 458.674 58.109 465.318 62.5908L696.568 218.571C703.212 223.053 706.215 231.303 704.006 239.007L627.121 507.139C624.911 514.844 617.993 520.249 609.983 520.529L331.215 530.264C323.205 530.543 315.926 525.634 313.185 518.102L217.783 255.987C215.041 248.455 217.462 240.015 223.777 235.081Z" stroke="#6FD791" stroke-opacity="0.09" stroke-width="3"/>
<path opacity="0.262626" d="M222.688 232.059L444.988 64.5442C451.389 59.7208 460.167 59.5676 466.733 64.1646L694.744 223.82C701.309 228.417 704.167 236.718 701.824 244.383L620.442 510.57C618.099 518.235 611.087 523.519 603.074 523.659L324.766 528.516C316.752 528.656 309.56 523.62 306.951 516.042L216.329 252.857C213.72 245.279 216.287 236.883 222.688 232.059Z" stroke="#6FD791" stroke-opacity="0.09" stroke-width="3"/>
<path opacity="0.272727" d="M221.665 229.081L446.38 65.8163C452.864 61.1054 461.644 61.1054 468.128 65.8164L692.842 229.081C699.326 233.792 702.039 242.142 699.563 249.765L613.729 513.932C611.253 521.555 604.15 526.715 596.135 526.715L318.373 526.715C310.358 526.715 303.255 521.555 300.778 513.932L214.945 249.765C212.468 242.142 215.181 233.792 221.665 229.081Z" stroke="#6FD791" stroke-opacity="0.09" stroke-width="3"/>
<path opacity="0.282828" d="M220.71 226.146L447.758 67.1648C454.323 62.5678 463.102 62.721 469.502 67.5444L690.864 234.352C697.264 239.175 699.831 247.572 697.222 255.15L606.983 517.223C604.374 524.801 597.181 529.837 589.168 529.698L312.036 524.86C304.022 524.72 297.01 519.436 294.667 511.772L213.629 246.709C211.286 239.044 214.144 230.743 220.71 226.146Z" stroke="#6FD791" stroke-opacity="0.09" stroke-width="3"/>
<path opacity="0.292929" d="M219.819 223.255L449.12 68.5901C455.764 64.1083 464.539 64.4147 470.855 69.3491L688.808 239.633C695.124 244.567 697.544 253.007 694.803 260.538L600.204 520.445C597.463 527.976 590.184 532.886 582.174 532.606L305.756 522.953C297.746 522.674 290.828 517.268 288.619 509.564L212.381 243.692C210.172 235.988 213.175 227.737 219.819 223.255Z" stroke="#6FD791" stroke-opacity="0.09" stroke-width="3"/>
<path opacity="0.30303" d="M218.993 220.409L450.465 70.0895C457.187 65.7244 465.955 66.1839 472.184 71.2277L686.675 244.919C692.904 249.963 695.176 258.444 692.304 265.926L593.395 523.594C590.522 531.076 583.159 535.858 575.155 535.438L299.535 520.994C291.531 520.574 284.708 515.049 282.633 507.307L211.199 240.713C209.125 232.971 212.272 224.774 218.993 220.409Z" stroke="#6FD791" stroke-opacity="0.09" stroke-width="3"/>
<path opacity="0.313131" d="M218.231 217.611L451.793 71.6657C458.59 67.4186 467.348 68.031 473.488 73.1828L684.465 250.214C690.605 255.365 692.729 263.885 689.726 271.316L586.555 526.672C583.553 534.103 576.107 538.756 568.112 538.197L293.372 518.985C285.377 518.426 278.651 512.783 276.712 505.006L210.084 237.776C208.145 229.999 211.434 221.858 218.231 217.611Z" stroke="#6FD791" stroke-opacity="0.09" stroke-width="3"/>
<path opacity="0.323232" d="M217.531 214.859L453.101 73.315C459.971 69.1872 468.717 69.9524 474.766 75.2105L682.178 255.511C688.227 260.769 690.202 269.324 687.07 276.701L579.688 529.678C576.556 537.055 569.031 541.577 561.046 540.879L287.269 516.926C279.285 516.228 272.658 510.468 270.855 502.658L209.034 234.879C207.231 227.069 210.661 218.987 217.531 214.859Z" stroke="#6FD791" stroke-opacity="0.09" stroke-width="3"/>
<path opacity="0.333333" d="M216.893 212.158L454.388 75.0399C461.329 71.0326 470.061 71.9503 476.017 77.3132L679.814 260.813C685.77 266.175 687.595 274.764 684.335 282.085L572.794 532.612C569.534 539.934 561.93 544.324 553.959 543.486L281.226 514.821C273.255 513.983 266.731 508.108 265.064 500.268L208.048 232.025C206.381 224.186 209.952 216.165 216.893 212.158Z" stroke="#6FD791" stroke-opacity="0.09" stroke-width="3"/>
<path opacity="0.343434" d="M216.316 209.505L455.653 76.8376C462.663 72.9521 471.378 74.0221 477.239 79.4881L677.372 266.115C683.234 271.581 684.909 280.2 681.522 287.464L565.874 535.473C562.487 542.737 554.807 546.993 546.852 546.017L275.244 512.667C267.289 511.691 260.868 505.703 259.339 497.835L207.124 229.215C205.595 221.348 209.306 213.39 216.316 209.505Z" stroke="#6FD791" stroke-opacity="0.09" stroke-width="3"/>
<path opacity="0.353535" d="M215.798 206.904L456.895 78.7097C463.972 74.947 472.667 76.1689 478.432 81.7364L674.855 271.42C680.62 276.987 682.145 285.634 678.631 292.837L558.93 538.262C555.416 545.466 547.664 549.588 539.727 548.472L269.325 510.47C261.388 509.354 255.072 503.255 253.681 495.362L206.264 226.451C204.872 218.558 208.721 210.666 215.798 206.904Z" stroke="#6FD791" stroke-opacity="0.09" stroke-width="3"/>
<path opacity="0.363636" d="M215.339 204.353L458.113 80.6533C465.254 77.0147 473.926 78.3882 479.593 84.0555L672.26 276.722C677.927 282.39 679.301 291.062 675.662 298.203L551.963 540.977C548.324 548.118 540.501 552.104 532.585 550.851L263.467 508.226C255.551 506.973 249.343 500.764 248.089 492.848L205.465 223.731C204.211 215.815 208.197 207.992 215.339 204.353Z" stroke="#6FD791" stroke-opacity="0.09" stroke-width="3"/>
<path opacity="0.373737" d="M214.937 201.856L459.305 82.6699C466.509 79.1565 475.155 80.6811 480.723 86.4464L669.589 282.024C675.157 287.789 676.379 296.484 672.616 303.56L544.974 543.62C541.211 550.696 533.32 554.545 525.427 553.153L257.673 505.941C249.78 504.549 243.681 498.234 242.566 490.297L204.727 221.059C203.611 213.122 207.733 205.37 214.937 201.856Z" stroke="#6FD791" stroke-opacity="0.09" stroke-width="3"/>
<path opacity="0.383838" d="M214.592 199.412L460.47 84.7568C467.734 81.3697 476.353 83.045 481.819 88.9065L666.842 287.32C672.308 293.182 673.378 301.896 669.493 308.906L537.966 546.188C534.08 553.197 526.123 556.908 518.255 555.379L251.943 503.613C244.076 502.084 238.088 495.662 237.111 487.707L204.048 218.433C203.071 210.478 207.328 202.799 214.592 199.412Z" stroke="#6FD791" stroke-opacity="0.09" stroke-width="3"/>
<path opacity="0.393939" d="M214.302 197.022L461.607 86.9153C468.928 83.6554 477.517 85.4808 482.88 91.4369L664.019 292.613C669.382 298.569 670.3 307.301 666.292 314.242L530.938 548.682C526.931 555.623 518.91 559.194 511.07 557.528L246.277 501.245C238.437 499.578 232.562 493.053 231.725 485.083L203.428 215.857C202.59 207.886 206.98 200.282 214.302 197.022Z" stroke="#6FD791" stroke-opacity="0.09" stroke-width="3"/>
<path opacity="0.40404" d="M214.067 194.687L462.714 89.1425C470.092 86.0109 478.647 87.986 483.905 94.0348L661.12 297.898C666.378 303.946 667.144 312.693 663.016 319.563L523.893 551.102C519.765 557.972 511.683 561.402 503.874 559.599L240.676 498.835C232.867 497.033 227.107 490.406 226.408 482.422L202.866 213.329C202.167 205.345 206.689 197.819 214.067 194.687Z" stroke="#6FD791" stroke-opacity="0.09" stroke-width="3"/>
<path opacity="0.414141" d="M213.884 192.41L463.791 91.4409C471.222 88.4385 479.741 90.5626 484.893 96.7022L658.146 303.177C663.297 309.316 663.91 318.075 659.663 324.872L516.832 553.449C512.585 560.246 504.444 563.535 496.667 561.596L235.141 496.39C227.364 494.451 221.72 487.725 221.161 479.73L202.359 210.853C201.8 202.858 206.453 195.412 213.884 192.41Z" stroke="#6FD791" stroke-opacity="0.09" stroke-width="3"/>
<path opacity="0.424242" d="M213.754 190.189L464.836 93.8076C472.319 90.9354 480.799 93.2078 485.843 99.4364L655.096 308.446C660.14 314.675 660.599 323.443 656.234 330.165L509.756 555.721C505.391 562.443 497.194 565.589 489.452 563.515L229.671 493.907C221.93 491.832 216.404 485.009 215.985 477.005L201.909 208.428C201.49 200.425 206.272 193.061 213.754 190.189Z" stroke="#6FD791" stroke-opacity="0.09" stroke-width="3"/>
<path opacity="0.434343" d="M213.675 188.026L465.849 96.2419C473.38 93.5007 481.82 95.9208 486.754 102.236L651.972 313.705C656.906 320.021 657.212 328.796 652.731 335.44L502.667 557.919C498.185 564.563 489.935 567.566 482.23 565.357L224.269 491.387C216.564 489.178 211.159 482.26 210.879 474.25L201.514 206.056C201.234 198.046 206.144 190.767 213.675 188.026Z" stroke="#6FD791" stroke-opacity="0.09" stroke-width="3"/>
<path opacity="0.444444" d="M213.645 185.921L466.827 98.7439C474.405 96.1346 482.801 98.7017 487.625 105.102L648.773 318.953C653.596 325.354 653.749 334.133 649.152 340.698L495.566 560.042C490.969 566.607 482.667 569.466 475.002 567.122L218.933 488.834C211.268 486.491 205.984 479.479 205.844 471.465L201.171 203.736C201.031 195.723 206.067 188.531 213.645 185.921Z" stroke="#6FD791" stroke-opacity="0.09" stroke-width="3"/>
<path opacity="0.454545" d="M213.665 183.877L467.77 101.313C475.393 98.8364 483.743 101.55 488.454 108.034L645.499 324.188C650.21 330.672 650.21 339.452 645.499 345.936L488.454 562.091C483.743 568.575 475.393 571.289 467.77 568.812L213.665 486.248C206.042 483.771 200.882 476.668 200.882 468.653L200.882 201.471C200.882 193.457 206.042 186.354 213.665 183.877Z" stroke="#6FD791" stroke-opacity="0.09" stroke-width="3"/>
<path opacity="0.464646" d="M213.731 181.892L468.677 103.947C476.341 101.604 484.643 104.463 489.24 111.028L642.152 329.409C646.749 335.974 646.596 344.753 641.773 351.154L481.332 564.066C476.509 570.466 468.113 573.033 460.534 570.424L208.465 483.629C200.887 481.02 195.851 473.828 195.99 465.815L200.643 199.261C200.783 191.247 206.067 184.235 213.731 181.892Z" stroke="#6FD791" stroke-opacity="0.09" stroke-width="3"/>
<path opacity="0.474747" d="M213.845 179.968L469.546 106.646C477.251 104.437 485.501 107.44 489.983 114.085L638.732 334.614C643.214 341.258 642.907 350.033 637.973 356.349L474.203 565.965C469.269 572.28 460.829 574.7 453.297 571.959L203.333 480.98C195.802 478.239 190.892 470.96 191.172 462.95L200.455 197.105C200.735 189.095 206.14 182.177 213.845 179.968Z" stroke="#6FD791" stroke-opacity="0.09" stroke-width="3"/>
<path opacity="0.484848" d="M214.003 178.105L470.378 109.41C478.119 107.335 486.316 110.482 490.681 117.204L635.239 339.802C639.604 346.524 639.144 355.292 634.1 361.521L467.067 567.79C462.023 574.018 453.542 576.291 446.06 573.419L198.27 478.301C190.788 475.429 186.006 468.065 186.425 460.061L200.316 195.007C200.736 187.003 206.261 180.179 214.003 178.105Z" stroke="#6FD791" stroke-opacity="0.09" stroke-width="3"/>
<path opacity="0.494949" d="M214.205 176.304L471.169 112.236C478.946 110.297 487.087 113.586 491.334 120.383L631.673 344.972C635.92 351.769 635.307 360.528 630.156 366.667L459.926 569.54C454.774 575.679 446.255 577.803 438.824 574.801L193.277 475.594C185.845 472.591 181.193 465.145 181.752 457.15L200.226 192.964C200.785 184.969 206.428 178.243 214.205 176.304Z" stroke="#6FD791" stroke-opacity="0.09" stroke-width="3"/>
<path opacity="0.50505" d="M214.45 174.568L471.92 115.126C479.73 113.323 487.812 116.754 491.939 123.624L628.035 350.124C632.163 356.994 631.397 365.741 626.139 371.79L452.78 571.217C447.522 577.265 438.967 579.24 431.59 576.109L188.352 472.861C180.975 469.729 176.453 462.203 177.151 454.219L200.182 190.981C200.88 182.997 206.64 176.371 214.45 174.568Z" stroke="#6FD791" stroke-opacity="0.09" stroke-width="3"/>
<path opacity="0.515152" d="M214.736 172.895L472.63 118.078C480.469 116.411 488.49 119.982 492.498 126.923L624.325 355.256C628.333 362.196 627.415 370.928 622.052 376.884L445.632 572.819C440.269 578.775 431.681 580.6 424.359 577.34L183.498 470.102C176.176 466.842 171.786 459.238 172.624 451.268L200.184 189.057C201.021 181.086 206.896 174.561 214.736 172.895Z" stroke="#6FD791" stroke-opacity="0.09" stroke-width="3"/>
<path opacity="0.525253" d="M215.062 171.285L473.297 121.089C481.164 119.56 489.121 123.271 493.007 130.28L620.545 360.365C624.43 367.374 623.36 376.089 617.894 381.95L438.483 574.346C433.017 580.207 424.398 581.883 417.134 578.496L178.714 467.318C171.45 463.931 167.194 456.252 168.17 448.297L200.23 187.191C201.207 179.236 207.195 172.814 215.062 171.285Z" stroke="#6FD791" stroke-opacity="0.09" stroke-width="3"/>
<path opacity="0.535354" d="M215.428 169.741L473.92 124.162C481.813 122.77 489.705 126.619 493.467 133.695L616.694 365.451C620.457 372.528 619.235 381.222 613.667 386.988L431.334 575.8C425.766 581.565 417.119 583.09 409.916 579.576L174.001 464.513C166.797 460.999 162.675 453.247 163.791 445.31L200.321 185.385C201.436 177.448 207.535 171.132 215.428 169.741Z" stroke="#6FD791" stroke-opacity="0.09" stroke-width="3"/>
<path opacity="0.545455" d="M215.831 168.261L474.499 127.292C482.415 126.039 490.238 130.025 493.877 137.166L612.773 370.513C616.412 377.654 615.038 386.326 609.371 391.994L424.185 577.179C418.518 582.846 409.846 584.22 402.705 580.581L169.358 461.685C162.217 458.046 158.23 450.223 159.484 442.307L200.453 183.64C201.707 175.724 207.915 169.515 215.831 168.261Z" stroke="#6FD791" stroke-opacity="0.09" stroke-width="3"/>
<path opacity="0.555556" d="M216.271 166.848L475.032 130.481C482.969 129.366 490.721 133.488 494.235 140.691L608.783 375.55C612.296 382.753 610.772 391.4 605.007 396.968L417.04 578.485C411.275 584.052 402.58 585.274 395.504 581.512L164.786 458.837C157.709 455.074 153.86 447.183 155.252 439.29L200.627 181.955C202.019 174.062 208.335 167.963 216.271 166.848Z" stroke="#6FD791" stroke-opacity="0.09" stroke-width="3"/>
<path opacity="0.565657" d="M216.747 165.501L475.52 133.728C483.475 132.751 491.154 137.008 494.541 144.272L604.724 380.561C608.112 387.825 606.436 396.443 600.575 401.909L409.899 579.718C404.037 585.184 395.323 586.254 388.313 582.368L160.285 455.97C153.275 452.085 149.565 444.127 151.094 436.26L200.841 180.333C202.37 172.466 208.792 166.478 216.747 165.501Z" stroke="#6FD791" stroke-opacity="0.09" stroke-width="3"/>
<path opacity="0.575758" d="M217.256 164.221L475.959 137.03C483.93 136.192 491.534 140.582 494.794 147.904L600.598 385.543C603.857 392.865 602.032 401.453 596.076 406.816L402.763 580.876C396.807 586.239 388.075 587.157 381.134 583.149L155.856 453.085C148.915 449.078 145.344 441.057 147.01 433.217L201.094 178.773C202.76 170.933 209.285 165.058 217.256 164.221Z" stroke="#6FD791" stroke-opacity="0.09" stroke-width="3"/>
<path opacity="0.585859" d="M217.798 163.008L476.351 140.388C484.335 139.689 491.861 144.212 494.993 151.589L596.403 390.498C599.535 397.875 597.56 406.43 591.511 411.688L395.633 581.963C389.584 587.221 380.838 587.986 373.968 583.858L151.498 450.185C144.628 446.057 141.197 437.975 143 430.165L201.384 177.276C203.187 169.467 209.813 163.707 217.798 163.008Z" stroke="#6FD791" stroke-opacity="0.09" stroke-width="3"/>
<path opacity="0.59596" d="M218.371 161.863L476.693 143.8C484.688 143.241 492.134 147.893 495.136 155.324L592.142 395.422C595.144 402.853 593.02 411.372 586.881 416.524L388.511 582.975C382.372 588.127 373.613 588.74 366.816 584.493L147.211 447.268C140.415 443.021 137.125 434.88 139.064 427.104L201.711 175.843C203.65 168.066 210.376 162.422 218.371 161.863Z" stroke="#6FD791" stroke-opacity="0.09" stroke-width="3"/>
<path opacity="0.606061" d="M218.974 160.787L476.986 147.265C484.989 146.846 492.353 151.628 495.225 159.11L587.815 400.315C590.687 407.797 588.415 416.278 582.186 421.322L381.399 583.916C375.17 588.96 366.402 589.42 359.68 585.055L142.997 444.339C136.275 439.974 133.129 431.777 135.203 424.035L202.073 174.473C204.147 166.732 210.971 161.206 218.974 160.787Z" stroke="#6FD791" stroke-opacity="0.09" stroke-width="3"/>
<path opacity="0.616162" d="M219.607 159.779L477.227 150.782C485.237 150.503 492.516 155.412 495.257 162.944L583.422 405.175C586.164 412.707 583.743 421.147 577.428 426.081L374.296 584.785C367.981 589.719 359.206 590.025 352.562 585.544L138.854 441.396C132.21 436.915 129.207 428.664 131.416 420.96L202.469 173.168C204.678 165.464 211.597 160.058 219.607 159.779Z" stroke="#6FD791" stroke-opacity="0.09" stroke-width="3"/>
<path opacity="0.626263" d="M220.267 158.84L477.417 154.352C485.431 154.212 492.623 159.248 495.232 166.826L578.965 410.004C581.574 417.582 579.007 425.978 572.606 430.801L367.206 585.582C360.805 590.405 352.026 590.559 345.461 585.962L134.783 438.444C128.218 433.847 125.36 425.545 127.703 417.88L202.898 171.929C205.241 164.264 212.253 158.98 220.267 158.84Z" stroke="#6FD791" stroke-opacity="0.09" stroke-width="3"/>
<path opacity="0.636364" d="M220.953 157.971L477.555 157.971C485.569 157.971 492.673 163.132 495.149 170.754L574.444 414.797C576.92 422.42 574.207 430.77 567.723 435.481L360.128 586.308C353.644 591.019 344.864 591.019 338.38 586.308L130.784 435.481C124.3 430.77 121.587 422.42 124.064 414.797L203.358 170.754C205.835 163.132 212.938 157.971 220.953 157.971Z" stroke="#6FD791" stroke-opacity="0.09" stroke-width="3"/>
<path opacity="0.646465" d="M221.664 157.171L477.639 161.639C485.653 161.779 492.665 167.063 495.008 174.728L569.859 419.555C572.202 427.22 569.344 435.521 562.779 440.118L353.064 586.962C346.499 591.559 337.72 591.406 331.319 586.582L126.857 432.509C120.457 427.686 117.89 419.29 120.499 411.712L203.849 169.645C206.458 162.067 213.65 157.031 221.664 157.171Z" stroke="#6FD791" stroke-opacity="0.09" stroke-width="3"/>
<path opacity="0.656566" d="M222.399 156.442L477.67 165.356C485.679 165.636 492.598 171.041 494.807 178.745L565.212 424.277C567.421 431.981 564.418 440.232 557.774 444.713L346.016 587.546C339.371 592.028 330.597 591.721 324.281 586.787L123.002 429.531C116.687 424.597 114.267 416.157 117.008 408.625L204.369 168.603C207.11 161.072 214.389 156.162 222.399 156.442Z" stroke="#6FD791" stroke-opacity="0.09" stroke-width="3"/>
<path opacity="0.666667" d="M223.156 155.781L477.645 169.118C485.649 169.538 492.472 175.063 494.547 182.805L560.504 428.96C562.578 436.702 559.432 444.899 552.71 449.264L338.984 588.059C332.263 592.424 323.495 591.964 317.266 586.92L119.219 426.545C112.991 421.502 110.718 413.021 113.591 405.538L204.916 167.626C207.789 160.144 215.152 155.362 223.156 155.781Z" stroke="#6FD791" stroke-opacity="0.09" stroke-width="3"/>
<path opacity="0.676768" d="M223.934 155.192L477.565 172.928C485.561 173.487 492.286 179.131 494.225 186.907L555.734 433.606C557.673 441.382 554.384 449.523 547.587 453.77L331.97 588.503C325.174 592.75 316.415 592.137 310.275 586.986L115.508 423.556C109.368 418.405 107.244 409.885 110.247 402.454L205.491 166.717C208.493 159.286 215.939 154.633 223.934 155.192Z" stroke="#6FD791" stroke-opacity="0.09" stroke-width="3"/>
<path opacity="0.686869" d="M224.732 154.674L477.43 176.782C485.414 177.48 492.04 183.241 493.843 191.05L550.905 438.212C552.708 446.021 549.277 454.103 542.407 458.231L324.976 588.877C318.106 593.005 309.359 592.24 303.31 586.981L111.868 420.564C105.82 415.305 103.844 406.75 106.976 399.373L206.09 165.875C209.222 158.497 216.748 153.975 224.732 154.674Z" stroke="#6FD791" stroke-opacity="0.09" stroke-width="3"/>
<path opacity="0.69697" d="M225.548 154.226L477.237 180.679C485.208 181.517 491.733 187.392 493.399 195.232L546.016 442.777C547.683 450.616 544.112 458.637 537.171 462.644L318.001 589.182C311.06 593.189 302.328 592.272 296.372 586.909L108.301 417.568C102.345 412.206 100.519 403.617 103.779 396.296L206.714 165.1C209.974 157.778 217.577 153.388 225.548 154.226Z" stroke="#6FD791" stroke-opacity="0.09" stroke-width="3"/>
<path opacity="0.707071" d="M226.382 153.85L476.987 184.621C484.942 185.598 491.363 191.585 492.893 199.453L541.069 447.301C542.599 455.169 538.888 463.126 531.878 467.012L311.048 589.42C304.038 593.306 295.323 592.236 289.462 586.77L104.804 414.574C98.9427 409.108 97.2673 400.489 100.654 393.225L207.36 164.394C210.747 157.13 218.427 152.874 226.382 153.85Z" stroke="#6FD791" stroke-opacity="0.09" stroke-width="3"/>
<path opacity="0.717172" d="M227.231 153.545L476.679 188.602C484.616 189.718 490.931 195.817 492.323 203.71L536.065 451.782C537.457 459.675 533.608 467.567 526.531 471.329L304.117 589.589C297.041 593.352 288.346 592.13 282.581 586.562L101.379 411.578C95.6141 406.011 94.0895 397.364 97.6029 390.161L208.028 163.755C211.542 156.551 219.294 152.429 227.231 153.545Z" stroke="#6FD791" stroke-opacity="0.09" stroke-width="3"/>
<path opacity="0.727273" d="M228.094 153.311L476.312 192.625C484.228 193.879 490.436 200.087 491.69 208.003L531.004 456.221C532.258 464.137 528.272 471.96 521.131 475.599L297.21 589.692C290.069 593.331 281.397 591.957 275.73 586.29L98.0255 408.585C92.3583 402.918 90.9848 394.246 94.6234 387.105L208.717 163.185C212.355 156.044 220.178 152.058 228.094 153.311Z" stroke="#6FD791" stroke-opacity="0.09" stroke-width="3"/>
<path opacity="0.737374" d="M228.971 153.149L475.886 196.687C483.779 198.078 489.878 204.394 490.994 212.331L525.888 460.615C527.003 468.552 522.881 476.304 515.678 479.817L290.328 589.728C283.125 593.241 274.478 591.716 268.911 585.951L94.743 405.595C89.1756 399.83 87.9536 391.135 91.7163 384.059L209.424 162.683C213.187 155.606 221.078 151.757 228.971 153.149Z" stroke="#6FD791" stroke-opacity="0.09" stroke-width="3"/>
<path opacity="0.747475" d="M229.86 153.059L475.4 200.787C483.268 202.317 489.256 208.738 490.232 216.693L520.716 464.965C521.693 472.92 517.436 480.599 510.173 483.986L283.472 589.698C276.208 593.085 267.59 591.41 262.124 585.548L91.5311 402.61C86.0651 396.749 84.995 388.034 88.8806 381.024L210.149 162.25C214.035 155.24 221.992 151.53 229.86 153.059Z" stroke="#6FD791" stroke-opacity="0.09" stroke-width="3"/>
<path opacity="0.757576" d="M230.759 153.039L474.854 204.923C482.693 206.59 488.568 213.115 489.406 221.085L515.491 469.267C516.329 477.238 511.939 484.841 504.617 488.101L276.643 589.602C269.321 592.862 260.733 591.036 255.37 585.08L88.3899 399.629C83.027 393.673 82.1092 384.941 86.1166 378L210.891 161.885C214.898 154.944 222.919 151.373 230.759 153.039Z" stroke="#6FD791" stroke-opacity="0.09" stroke-width="3"/>
<path opacity="0.767677" d="M231.667 153.092L474.247 209.096C482.056 210.899 487.816 217.526 488.515 225.51L510.213 473.523C510.912 481.507 506.39 489.033 499.012 492.165L269.842 589.441C262.465 592.573 253.91 590.598 248.652 584.549L85.3189 396.656C80.0608 390.607 79.2956 381.861 83.4234 374.991L211.648 161.59C215.776 154.72 223.858 151.289 231.667 153.092Z" stroke="#6FD791" stroke-opacity="0.09" stroke-width="3"/>
<path opacity="0.777778" d="M232.583 153.217L473.578 213.304C481.355 215.243 486.998 221.969 487.558 229.964L504.883 477.732C505.442 485.727 500.79 493.173 493.358 496.175L263.071 589.218C255.64 592.22 247.121 590.096 241.969 583.956L82.318 393.692C77.1663 387.552 76.5538 378.793 80.8009 371.996L212.419 161.364C216.666 154.567 224.806 151.278 232.583 153.217Z" stroke="#6FD791" stroke-opacity="0.09" stroke-width="3"/>
<path opacity="0.787879" d="M233.506 153.414L472.848 217.546C480.589 219.62 486.115 226.443 486.534 234.447L499.502 481.893C499.922 489.896 495.14 497.26 487.658 500.132L256.33 588.93C248.848 591.802 240.367 589.53 235.323 583.301L79.3869 390.736C74.3431 384.508 73.8836 375.74 78.2487 369.018L213.202 161.208C217.567 154.486 225.764 151.34 233.506 153.414Z" stroke="#6FD791" stroke-opacity="0.09" stroke-width="3"/>
<path opacity="0.79798" d="M234.434 153.681L472.055 221.818C479.759 224.027 485.165 230.946 485.444 238.956L494.071 486.002C494.351 494.012 489.441 501.291 481.91 504.032L249.621 588.579C242.089 591.32 233.649 588.9 228.715 582.584L76.525 387.79C71.5907 381.475 71.2843 372.7 75.766 366.055L213.997 161.119C218.479 154.475 226.729 151.472 234.434 153.681Z" stroke="#6FD791" stroke-opacity="0.09" stroke-width="3"/>
<path opacity="0.808081" d="M235.366 154.021L471.199 226.123C478.864 228.466 484.148 235.478 484.288 243.492L488.592 490.064C488.732 498.077 483.696 505.269 476.118 507.878L242.944 588.167C235.366 590.776 226.969 588.209 222.146 581.808L73.7325 384.857C68.9091 378.456 68.7559 369.678 73.3529 363.112L214.802 161.102C219.399 154.536 227.701 151.678 235.366 154.021Z" stroke="#6FD791" stroke-opacity="0.09" stroke-width="3"/>
<path opacity="0.818182" d="M236.3 154.431L470.281 230.456C477.903 232.933 483.064 240.036 483.064 248.051L483.064 494.073C483.064 502.087 477.903 509.191 470.28 511.667L236.3 587.692C228.677 590.169 220.327 587.456 215.616 580.972L71.0082 381.936C66.2973 375.452 66.2973 366.672 71.0082 360.188L215.616 161.152C220.327 154.668 228.677 151.955 236.3 154.431Z" stroke="#6FD791" stroke-opacity="0.09" stroke-width="3"/>
<path opacity="0.828283" d="M237.236 154.914L469.298 234.819C476.876 237.429 481.912 244.621 481.772 252.634L477.489 498.031C477.349 506.044 472.065 513.056 464.401 515.4L229.691 587.158C222.026 589.501 213.725 586.642 209.128 580.077L68.3525 379.029C63.7555 372.464 63.9087 363.685 68.7321 357.285L216.438 161.272C221.261 154.872 229.658 152.305 237.236 154.914Z" stroke="#6FD791" stroke-opacity="0.09" stroke-width="3"/>
<path opacity="0.838384" d="M238.172 155.467L468.252 239.209C475.783 241.95 480.693 249.229 480.413 257.239L471.868 501.936C471.589 509.946 466.183 516.865 458.479 519.074L223.118 586.563C215.413 588.772 207.163 585.769 202.681 579.124L65.7649 376.138C61.2832 369.493 61.5896 360.718 66.5239 354.403L217.266 161.461C222.201 155.146 230.641 152.726 238.172 155.467Z" stroke="#6FD791" stroke-opacity="0.09" stroke-width="3"/>
<path opacity="0.848485" d="M239.106 156.092L467.141 243.626C474.624 246.498 479.406 253.862 478.986 261.866L466.203 505.789C465.783 513.793 460.258 520.616 452.516 522.691L216.581 585.91C208.839 587.984 200.642 584.837 196.277 578.116L63.2444 373.263C58.8793 366.542 59.3388 357.774 64.3826 351.545L218.099 161.721C223.143 155.492 231.624 153.22 239.106 156.092Z" stroke="#6FD791" stroke-opacity="0.09" stroke-width="3"/>
<path opacity="0.858586" d="M240.039 156.787L465.966 248.067C473.397 251.07 478.05 258.516 477.491 266.511L460.493 509.588C459.934 517.583 454.291 524.309 446.514 526.248L210.081 585.197C202.305 587.136 194.164 583.847 189.917 577.05L60.7912 370.406C56.544 363.609 57.1565 354.85 62.3082 348.711L218.937 162.048C224.088 155.908 232.608 153.784 240.039 156.787Z" stroke="#6FD791" stroke-opacity="0.09" stroke-width="3"/>
<path opacity="0.868687" d="M240.967 157.553L464.726 252.533C472.104 255.665 476.626 263.19 475.927 271.175L454.741 513.333C454.043 521.317 448.282 527.943 440.473 529.746L203.62 584.428C195.811 586.231 187.729 582.8 183.601 575.93L58.4043 367.567C54.2764 360.697 55.0417 351.951 60.2998 345.902L219.776 162.445C225.035 156.396 233.59 154.421 240.967 157.553Z" stroke="#6FD791" stroke-opacity="0.09" stroke-width="3"/>
<path opacity="0.878788" d="M241.891 158.39L463.421 257.022C470.743 260.282 475.133 267.885 474.295 275.856L448.947 517.023C448.11 524.994 442.235 531.518 434.395 533.185L197.199 583.602C189.36 585.269 181.339 581.697 177.331 574.757L56.0838 364.75C52.0764 357.809 52.9942 349.077 58.3571 343.121L220.618 162.912C225.981 156.956 234.569 155.13 241.891 158.39Z" stroke="#6FD791" stroke-opacity="0.09" stroke-width="3"/>
<path opacity="0.888889" d="M242.808 159.297L462.05 261.531C469.314 264.918 473.571 272.597 472.594 280.552L443.113 520.657C442.136 528.612 436.148 535.033 428.281 536.562L190.818 582.72C182.951 584.249 174.993 580.539 171.108 573.529L53.8286 361.952C49.943 354.942 51.013 346.228 56.479 340.366L221.459 163.446C226.925 157.585 235.544 155.91 242.808 159.297Z" stroke="#6FD791" stroke-opacity="0.09" stroke-width="3"/>
<path opacity="0.89899" d="M243.717 160.274L460.614 266.061C467.817 269.574 471.939 277.327 470.824 285.263L437.239 524.234C436.123 532.171 430.024 538.487 422.131 539.879L184.478 581.783C176.585 583.175 168.694 579.326 164.931 572.25L51.6383 359.177C47.8756 352.101 49.0976 343.406 54.665 337.641L222.3 164.05C227.867 158.285 236.514 156.76 243.717 160.274Z" stroke="#6FD791" stroke-opacity="0.09" stroke-width="3"/>
<path opacity="0.909091" d="M244.618 161.321L459.112 270.611C466.253 274.25 470.239 282.073 468.985 289.989L431.327 527.757C430.073 535.673 423.864 541.881 415.948 543.135L178.18 580.794C170.264 582.047 162.441 578.061 158.803 570.92L49.5128 356.427C45.8742 349.285 47.2477 340.614 52.915 334.946L223.138 164.723C228.805 159.056 237.477 157.683 244.618 161.321Z" stroke="#6FD791" stroke-opacity="0.09" stroke-width="3"/>
<path opacity="0.919192" d="M245.509 162.436L457.544 275.177C464.62 278.94 468.469 286.831 467.077 294.724L425.377 531.22C423.985 539.112 417.669 545.212 409.732 546.327L171.926 579.749C163.989 580.864 156.237 576.742 152.723 569.539L47.451 353.699C43.9376 346.495 45.4622 337.848 51.2275 332.281L223.973 165.463C229.738 159.895 238.432 158.673 245.509 162.436Z" stroke="#6FD791" stroke-opacity="0.09" stroke-width="3"/>
<path opacity="0.929293" d="M246.388 163.621L455.909 279.76C462.919 283.646 466.629 291.603 465.1 299.471L419.391 534.626C417.861 542.493 411.44 548.481 403.485 549.458L165.715 578.652C157.76 579.629 150.08 575.372 146.693 568.109L45.4524 350.997C42.0653 343.733 43.7406 335.115 49.6022 329.648L224.802 166.272C230.664 160.806 239.379 159.736 246.388 163.621Z" stroke="#6FD791" stroke-opacity="0.09" stroke-width="3"/>
<path opacity="0.939394" d="M247.255 164.875L454.208 284.359C461.149 288.366 464.72 296.387 463.054 304.227L413.37 537.973C411.703 545.813 405.178 551.688 397.208 552.526L159.548 577.505C151.578 578.342 143.974 573.952 140.714 566.631L43.5168 348.322C40.2569 341 42.0824 332.412 48.0385 327.049L225.627 167.148C231.583 161.785 240.315 160.868 247.255 164.875Z" stroke="#6FD791" stroke-opacity="0.09" stroke-width="3"/>
<path opacity="0.949495" d="M248.109 166.198L452.441 288.973C459.311 293.101 462.741 301.183 460.938 308.992L407.314 541.263C405.511 549.072 398.885 554.833 390.901 555.531L153.427 576.307C145.443 577.006 137.917 572.484 134.786 565.106L41.643 345.676C38.5114 338.298 40.4864 329.743 46.5352 324.485L226.443 168.093C232.492 162.835 241.239 162.07 248.109 166.198Z" stroke="#6FD791" stroke-opacity="0.09" stroke-width="3"/>
<path opacity="0.959596" d="M248.947 167.587L450.607 293.598C457.404 297.845 460.693 305.986 458.754 313.763L401.227 544.492C399.288 552.269 392.562 557.912 384.567 558.471L147.353 575.059C139.358 575.618 131.912 570.965 128.91 563.534L39.8309 343.057C36.8286 335.625 38.9526 327.106 45.0923 321.954L227.252 169.104C233.392 163.952 242.15 163.34 248.947 167.587Z" stroke="#6FD791" stroke-opacity="0.09" stroke-width="3"/>
<path opacity="0.969697" d="M249.769 169.045L448.706 298.236C455.428 302.601 458.574 310.798 456.5 318.54L395.107 547.662C393.032 555.404 386.209 560.929 378.205 561.349L141.325 573.763C133.322 574.182 125.958 569.4 123.086 561.918L38.0792 340.468C35.207 332.986 37.4794 324.505 43.708 319.461L228.051 170.183C234.28 165.139 243.048 164.68 249.769 169.045Z" stroke="#6FD791" stroke-opacity="0.09" stroke-width="3"/>
<path opacity="0.979798" d="M250.574 170.568L446.739 302.883C453.383 307.365 456.386 315.615 454.177 323.319L388.957 550.77C386.747 558.475 379.829 563.88 371.819 564.16L135.346 572.418C127.336 572.697 120.057 567.788 117.316 560.256L36.388 337.909C33.6468 330.377 36.0669 321.938 42.3826 317.003L228.84 171.327C235.155 166.393 243.93 166.086 250.574 170.568Z" stroke="#6FD791" stroke-opacity="0.09" stroke-width="3"/>
<path opacity="0.989899" d="M251.361 172.159L444.705 307.54C451.27 312.137 454.129 320.439 451.785 328.104L382.777 553.82C380.434 561.484 373.422 566.768 365.408 566.908L129.415 571.027C121.401 571.167 114.209 566.131 111.6 558.553L34.7561 335.383C32.1467 327.805 34.7138 319.408 41.1146 314.585L229.616 172.539C236.017 167.716 244.796 167.562 251.361 172.159Z" stroke="#6FD791" stroke-opacity="0.09" stroke-width="3"/>
<path d="M252.128 173.816L442.604 312.206C449.088 316.916 451.801 325.267 449.325 332.889L376.569 556.807C374.093 564.43 366.989 569.591 358.975 569.591H123.533C115.518 569.591 108.415 564.43 105.939 556.808L33.1831 332.889C30.7064 325.267 33.4196 316.916 39.9036 312.206L230.38 173.816C236.864 169.106 245.644 169.106 252.128 173.816Z" stroke="#6FD791" stroke-opacity="0.09" stroke-width="3"/>
</svg>
