<svg width="152" height="71" viewBox="0 0 152 71" fill="none" xmlns="http://www.w3.org/2000/svg">
<path d="M26.4118 2H9.64706L7.68169 18.1765L22.8824 64.9412H32L26.4118 2Z" fill="black"/>
<path d="M2 64.9412L7.68169 18.1765M7.68169 18.1765L9.64706 2H26.4118L32 64.9412H22.8824L7.68169 18.1765Z" stroke="black" stroke-width="4"/>
<path d="M47.632 65.1812C46.064 65.1812 44.72 64.9012 43.6 64.3412C42.496 63.7652 41.544 62.9332 40.744 61.8452L43 59.3012C43.784 60.3892 44.56 61.1332 45.328 61.5332C46.112 61.9172 46.952 62.1092 47.848 62.1092C48.344 62.1092 48.784 62.0372 49.168 61.8932C49.568 61.7492 49.88 61.5492 50.104 61.2932C50.344 61.0372 50.464 60.7412 50.464 60.4052C50.464 60.1492 50.408 59.9172 50.296 59.7092C50.184 59.4852 50.024 59.2932 49.816 59.1332C49.608 58.9572 49.36 58.8052 49.072 58.6772C48.784 58.5332 48.464 58.4132 48.112 58.3172C47.76 58.2212 47.376 58.1332 46.96 58.0532C46.064 57.8612 45.28 57.6132 44.608 57.3092C43.936 57.0052 43.376 56.6372 42.928 56.2052C42.48 55.7732 42.144 55.2772 41.92 54.7172C41.712 54.1412 41.608 53.5012 41.608 52.7972C41.608 51.8052 41.888 50.9412 42.448 50.2052C43.008 49.4532 43.752 48.8692 44.68 48.4532C45.608 48.0212 46.632 47.8052 47.752 47.8052C49.272 47.8052 50.52 48.0612 51.496 48.5732C52.488 49.0852 53.28 49.8052 53.872 50.7332L51.568 52.9892C51.072 52.3012 50.504 51.7812 49.864 51.4292C49.224 51.0772 48.536 50.9012 47.8 50.9012C47.288 50.9012 46.832 50.9732 46.432 51.1172C46.048 51.2452 45.752 51.4452 45.544 51.7172C45.336 51.9732 45.232 52.2772 45.232 52.6292C45.232 52.9172 45.304 53.1732 45.448 53.3972C45.592 53.6212 45.792 53.8212 46.048 53.9972C46.32 54.1572 46.648 54.3012 47.032 54.4292C47.416 54.5572 47.84 54.6612 48.304 54.7412C49.184 54.9172 49.976 55.1572 50.68 55.4612C51.384 55.7492 51.984 56.1012 52.48 56.5172C52.992 56.9332 53.384 57.4132 53.656 57.9572C53.928 58.5012 54.064 59.1092 54.064 59.7812C54.064 60.9172 53.792 61.8852 53.248 62.6852C52.704 63.4852 51.952 64.1012 50.992 64.5332C50.032 64.9652 48.912 65.1812 47.632 65.1812ZM55.3326 64.9412L61.9326 48.1412H65.1486L71.7006 64.9412H68.0286L64.6206 55.8932C64.5246 55.6212 64.4046 55.2852 64.2606 54.8852C64.1326 54.4852 63.9966 54.0612 63.8526 53.6132C63.7086 53.1652 63.5726 52.7412 63.4446 52.3412C63.3326 51.9252 63.2366 51.5892 63.1566 51.3332L63.8046 51.3092C63.7086 51.6612 63.5966 52.0372 63.4686 52.4372C63.3566 52.8212 63.2286 53.2212 63.0846 53.6372C62.9566 54.0532 62.8206 54.4532 62.6766 54.8372C62.5486 55.2212 62.4206 55.5892 62.2926 55.9412L58.9086 64.9412H55.3326ZM58.4046 61.4132L59.6046 58.4852H67.2606L68.4846 61.4132H58.4046ZM73.6264 64.9412V47.1812H77.0344V64.9412H73.6264ZM81.9181 70.4612L84.7021 63.9572L84.7501 65.9492L78.5341 52.2452H82.3981L85.5181 59.6132C85.6301 59.8692 85.7501 60.1812 85.8781 60.5492C86.0061 60.9172 86.1021 61.2692 86.1661 61.6052L85.5901 61.8452C85.7021 61.5732 85.8141 61.2612 85.9261 60.9092C86.0541 60.5572 86.1821 60.1812 86.3101 59.7812L88.9741 52.2452H92.8861L87.5581 64.9412L85.3741 70.4612H81.9181ZM95.9436 64.9412V49.0292H99.3516V64.9412H95.9436ZM93.5676 55.2932V52.2452H101.968V55.2932H93.5676ZM104.453 64.9412V52.2452H107.861V64.9412H104.453ZM106.157 49.6292C105.485 49.6292 104.965 49.4692 104.597 49.1492C104.229 48.8292 104.045 48.3732 104.045 47.7812C104.045 47.2372 104.229 46.7972 104.597 46.4612C104.981 46.1092 105.501 45.9332 106.157 45.9332C106.797 45.9332 107.301 46.0932 107.669 46.4132C108.037 46.7332 108.221 47.1892 108.221 47.7812C108.221 48.3412 108.037 48.7892 107.669 49.1252C107.301 49.4612 106.797 49.6292 106.157 49.6292ZM117.044 65.1812C115.828 65.1812 114.74 64.8932 113.78 64.3172C112.82 63.7412 112.06 62.9572 111.5 61.9652C110.956 60.9572 110.684 59.8372 110.684 58.6052C110.684 57.3412 110.956 56.2132 111.5 55.2212C112.06 54.2132 112.82 53.4212 113.78 52.8452C114.74 52.2692 115.828 51.9812 117.044 51.9812C118.18 51.9812 119.212 52.1972 120.14 52.6292C121.084 53.0452 121.82 53.6212 122.348 54.3572L120.5 56.6132C120.276 56.3092 119.996 56.0292 119.66 55.7732C119.324 55.5172 118.956 55.3172 118.556 55.1732C118.172 55.0292 117.772 54.9572 117.356 54.9572C116.7 54.9572 116.116 55.1172 115.604 55.4372C115.092 55.7412 114.692 56.1732 114.404 56.7332C114.116 57.2772 113.972 57.8932 113.972 58.5812C113.972 59.2532 114.124 59.8612 114.428 60.4052C114.732 60.9492 115.14 61.3812 115.652 61.7012C116.164 62.0212 116.732 62.1812 117.356 62.1812C117.772 62.1812 118.164 62.1252 118.532 62.0132C118.916 61.8852 119.268 61.7012 119.588 61.4612C119.908 61.2212 120.212 60.9412 120.5 60.6212L122.348 62.8772C121.82 63.5652 121.068 64.1252 120.092 64.5572C119.132 64.9732 118.116 65.1812 117.044 65.1812ZM128.804 65.1812C127.636 65.1812 126.588 64.9892 125.66 64.6052C124.748 64.2212 124.004 63.6772 123.428 62.9732L125.564 61.1492C126.06 61.6772 126.604 62.0612 127.196 62.3012C127.804 62.5252 128.42 62.6372 129.044 62.6372C129.268 62.6372 129.476 62.6132 129.668 62.5652C129.86 62.5012 130.028 62.4212 130.172 62.3252C130.316 62.2132 130.42 62.0852 130.484 61.9412C130.564 61.7972 130.604 61.6292 130.604 61.4372C130.604 61.0852 130.46 60.8132 130.172 60.6212C130.044 60.5252 129.804 60.4212 129.452 60.3092C129.116 60.1812 128.684 60.0452 128.156 59.9012C127.34 59.6932 126.652 59.4532 126.092 59.1812C125.532 58.8932 125.076 58.5652 124.724 58.1972C124.436 57.8932 124.212 57.5412 124.052 57.1412C123.908 56.7412 123.836 56.3012 123.836 55.8212C123.836 55.0532 124.06 54.3812 124.508 53.8052C124.956 53.2292 125.548 52.7812 126.284 52.4612C127.036 52.1412 127.852 51.9812 128.732 51.9812C129.388 51.9812 130.02 52.0612 130.628 52.2212C131.252 52.3812 131.828 52.6132 132.356 52.9172C132.9 53.2052 133.372 53.5492 133.772 53.9492L131.948 55.9892C131.66 55.7012 131.332 55.4532 130.964 55.2452C130.596 55.0212 130.228 54.8452 129.86 54.7172C129.492 54.5732 129.156 54.5012 128.852 54.5012C128.58 54.5012 128.332 54.5252 128.108 54.5732C127.9 54.6212 127.724 54.7012 127.58 54.8132C127.436 54.9092 127.324 55.0292 127.244 55.1732C127.18 55.3172 127.148 55.4772 127.148 55.6532C127.148 55.8292 127.188 55.9972 127.268 56.1572C127.364 56.3012 127.492 56.4372 127.652 56.5652C127.812 56.6612 128.068 56.7732 128.42 56.9012C128.788 57.0292 129.26 57.1732 129.836 57.3332C130.604 57.5412 131.252 57.7732 131.78 58.0292C132.308 58.2852 132.732 58.5812 133.052 58.9172C133.34 59.2052 133.54 59.5412 133.652 59.9252C133.78 60.2932 133.844 60.6932 133.844 61.1252C133.844 61.9092 133.62 62.6132 133.172 63.2372C132.74 63.8452 132.14 64.3252 131.372 64.6772C130.62 65.0132 129.764 65.1812 128.804 65.1812Z" fill="black"/>
</svg>
