<svg width="12" height="8" viewBox="0 0 12 8" fill="none" xmlns="http://www.w3.org/2000/svg">
<path d="M0.999807 2.59006L5.28981 6.83006C5.38277 6.92378 5.49337 6.99818 5.61523 7.04895C5.73709 7.09972 5.8678 7.12585 5.99981 7.12585C6.13182 7.12585 6.26253 7.09972 6.38438 7.04895C6.50624 6.99818 6.61684 6.92378 6.70981 6.83006L10.9498 2.59006C11.0435 2.49709 11.1179 2.38649 11.1687 2.26463C11.2195 2.14277 11.2456 2.01207 11.2456 1.88006C11.2456 1.74804 11.2195 1.61734 11.1687 1.49548C11.1179 1.37362 11.0435 1.26302 10.9498 1.17006C10.7624 0.983805 10.509 0.879264 10.2448 0.879264C9.98062 0.879264 9.72717 0.983805 9.53981 1.17006L5.99981 4.71006L2.45981 1.17006C2.27355 0.985312 2.02215 0.881161 1.75981 0.880056C1.6282 0.879295 1.49774 0.90452 1.3759 0.954285C1.25406 1.00405 1.14325 1.07737 1.04981 1.17006C0.952732 1.25967 0.874378 1.36764 0.819271 1.48772C0.764164 1.60779 0.733397 1.7376 0.728748 1.86963C0.724099 2.00167 0.74566 2.13331 0.792185 2.25697C0.83871 2.38062 0.909276 2.49383 0.999807 2.59006Z" fill="black"/>
</svg>
